<svg width="100%" height="100%" viewBox="0 0 1346 2015" version="1.1" xmlns="http://www.w3.org/2000/svg" xmlns:xlink="http://www.w3.org/1999/xlink" xml:space="preserve" xmlns:serif="http://www.serif.com/" style="fill-rule:evenodd;clip-rule:evenodd;stroke-linejoin:round;stroke-miterlimit:2;">
    <g id="Artboard1" transform="matrix(1,0,0,1,-527.283,-192.716)">
        <rect x="527.283" y="192.716" width="1345.44" height="2014.58" style="fill:none;"/>
        <clipPath id="_clip1">
            <rect x="527.283" y="192.716" width="1345.44" height="2014.58"/>
        </clipPath>
        <g clip-path="url(#_clip1)">
            <g transform="matrix(3.0426,0,0,3.0426,-38527.6,-166.363)">
                <g>
                    <path d="M13187.6,508.917L13244.7,589.485L13244.8,589.537L13265.2,617.418C13255.4,629.194 13243.3,642.149 13241,644.706L13240.5,645.159C13238.5,647.124 13236.4,648.956 13234.1,650.633L13230.8,648.769C13229.6,648.18 13228.5,647.591 13227.3,647.002L13225.3,646.051C13221.8,644.389 13218.2,642.895 13214.5,641.577C13210.7,640.239 13206.9,639.083 13202.9,638.118C13193.5,635.763 13183.6,634.524 13173.5,634.524C13163.9,634.524 13154.6,635.618 13145.7,637.69L13145.7,637.691C13091.5,650.278 13051,698.96 13051,757.023C13051,765.007 13051.7,772.814 13053.2,780.376C13040.2,759.365 13032.7,734.588 13032.7,708.07C13032.7,668.502 13049.4,632.811 13076.2,607.702C13064.8,596.953 13037.7,575.358 12995.5,566.422C12938.2,554.294 12895.1,586.517 12895.1,586.517C12895.1,586.517 12899.6,571.585 12905.2,549.308L13166.4,550.177C13168.1,550.182 13169.6,549.217 13170.2,547.715L13187.6,508.917ZM13277.7,590.591C13278.1,592.996 13278.3,595.457 13278.3,597.963C13278.3,600.008 13275.1,604.855 13270.6,610.7L13256.2,591.065L13277.7,590.591ZM13052.9,240.013C13005.4,170.67 12926.1,124.795 12836.1,123.392C12853,120.015 12870.6,118.252 12888.5,118.252C12997.3,118.252 13091.1,183.317 13133,276.643L13133.4,277.61C13133.6,277.928 13133.7,278.246 13133.9,278.562C13142.8,298.907 13149.3,320.592 13153,343.221L13153.1,343.97L13153.4,344.144C13173.6,353.953 13189.7,370.982 13198.2,391.861L13198.2,391.862C13202.6,402.513 13205,414.164 13205,426.371C13205,428.402 13204.9,430.417 13204.8,432.415C13207.9,447.819 13212.3,464.529 13217.9,476.558C13231.5,505.423 13257.9,535.76 13266.1,565.81C13266.1,565.81 13273.6,576.153 13275.7,582.301L13250.2,582.861L13157.9,452.552C13157.7,452.235 13157.4,451.959 13157.1,451.726C13158.5,448.973 13159.3,445.868 13159.3,442.584C13159.3,431.281 13150.1,422.105 13138.8,422.105C13128.7,422.105 13120.2,429.511 13118.6,439.212L13069.9,439.212L13052.8,421.988C13052,421.201 13050.9,420.759 13049.8,420.759L12926.6,420.759C12927.2,400.158 12925.4,382.192 12919.6,370.3C12968,371.894 12958.2,377.654 12991.5,367.729C13024.8,357.804 13054.2,327.206 13094.6,338.866C13094.5,338.272 13094.4,337.676 13094.2,337.081L13094.1,336.375C13090.9,320.876 13086.3,305.867 13080.5,291.473L13080,290.166C13073,273.227 13064.4,257.153 13054.4,242.143L13053.5,240.807L13052.9,240.013ZM12907.2,540.982C12908.8,534.477 12910.5,527.5 12912.1,520.202L12974.3,520.202C12975.7,520.202 12976.9,519.572 12977.7,518.505L12997.5,491.629L13076,491.629C13077.5,491.629 13079,490.735 13079.7,489.32L13100.5,447.545L13118.9,447.545C13121.2,456.453 13129.2,463.063 13138.8,463.063C13143.8,463.063 13148.3,461.307 13151.8,458.386L13182,501.024L13163.7,541.834L12907.2,540.982ZM12917.9,491.843L12986.7,492.249L12972.2,511.868L12913.9,511.868C12915.3,505.36 12916.6,498.652 12917.9,491.843ZM12926.2,429.092L13048.1,429.092L13065.2,446.316C13066,447.103 13067,447.545 13068.1,447.545L13091.2,447.545L13073.4,483.296L12919.5,483.296C12922.6,465.029 12925.2,446.344 12926.2,429.092ZM13138.8,428.106C13146.8,428.106 13153.3,434.593 13153.3,442.584C13153.3,450.575 13146.8,457.062 13138.8,457.062C13131.6,457.062 13125.7,451.839 13124.5,444.993L13124.5,444.951C13124.4,444.181 13124.4,443.39 13124.4,442.584L13124.4,441.438C13125,433.982 13131.2,428.106 13138.8,428.106ZM13152.4,301.146C13159.2,313.191 13164.1,326.52 13166.4,340.68C13164.8,339.679 13163.2,338.722 13161.5,337.811C13159.3,325.28 13156.2,313.038 13152.4,301.146ZM13041.5,240.011C13052.2,254.797 13061.4,270.756 13068.8,287.652C13052.1,278.967 13033.2,274.056 13013.1,274.056C12988.5,274.056 12965.6,281.431 12946.5,294.087C12967.1,262.916 13001.8,241.865 13041.5,240.011ZM13054.2,241.921L13054.4,242.135L13054.2,241.921ZM13053.5,240.807L13053.5,240.856L13053.4,240.73L13053.5,240.807ZM13052.9,240.013L13053.2,240.488L13052.9,240.007L13052.9,240.013Z" style="fill:url(#_Linear2);"/>
                </g>
            </g>
        </g>
    </g>
    <defs>
        <linearGradient id="_Linear2" x1="0" y1="0" x2="1" y2="0" gradientUnits="userSpaceOnUse" gradientTransform="matrix(232.374,-295.504,295.504,232.374,12971.3,610.7)"><stop offset="0" style="stop-color:rgb(0,198,138);stop-opacity:1"/><stop offset="1" style="stop-color:rgb(255,255,115);stop-opacity:1"/></linearGradient>
    </defs>
</svg>
